<svg width="36" height="18" viewBox="0 0 36 18" fill="none" xmlns="http://www.w3.org/2000/svg">
<path d="M6.1875 15.75C6.80882 15.75 7.3125 15.2463 7.3125 14.625C7.3125 14.0037 6.80882 13.5 6.1875 13.5C5.56618 13.5 5.0625 14.0037 5.0625 14.625C5.0625 15.2463 5.56618 15.75 6.1875 15.75Z" fill="#272727"/>
<path d="M14.0625 15.75C14.6838 15.75 15.1875 15.2463 15.1875 14.625C15.1875 14.0037 14.6838 13.5 14.0625 13.5C13.4412 13.5 12.9375 14.0037 12.9375 14.625C12.9375 15.2463 13.4412 15.75 14.0625 15.75Z" fill="#272727"/>
<path d="M16.0594 4.24617C15.9803 4.14951 15.8808 4.07166 15.7679 4.01827C15.6551 3.96487 15.5317 3.93729 15.4069 3.9375H4.70707L4.49156 2.71477C4.46858 2.58452 4.40045 2.46654 4.29912 2.38154C4.19779 2.29655 4.06976 2.24997 3.9375 2.25H1.6875C1.53832 2.25 1.39524 2.30926 1.28975 2.41475C1.18426 2.52024 1.125 2.66332 1.125 2.8125C1.125 2.96168 1.18426 3.10476 1.28975 3.21025C1.39524 3.31574 1.53832 3.375 1.6875 3.375H3.4657L5.07094 12.4727C5.09392 12.603 5.16205 12.721 5.26338 12.806C5.36471 12.891 5.49274 12.9375 5.625 12.9375H14.625C14.7742 12.9375 14.9173 12.8782 15.0227 12.7727C15.1282 12.6673 15.1875 12.5242 15.1875 12.375C15.1875 12.2258 15.1282 12.0827 15.0227 11.9773C14.9173 11.8718 14.7742 11.8125 14.625 11.8125H6.0968L5.89852 10.6875H14.3944C14.5894 10.6873 14.7784 10.6196 14.9294 10.496C15.0803 10.3725 15.1839 10.2005 15.2227 10.0093L16.2352 4.94684C16.2596 4.82432 16.2564 4.69791 16.226 4.57674C16.1956 4.45557 16.1387 4.34266 16.0594 4.24617Z" fill="#272727"/>
<path d="M21.536 10.232C21.536 11.08 21.642 11.906 21.854 12.71C22.066 13.514 22.376 14.276 22.784 14.996C22.852 15.128 22.87 15.23 22.838 15.302C22.806 15.374 22.756 15.432 22.688 15.476L22.166 15.794C21.866 15.334 21.61 14.876 21.398 14.42C21.19 13.968 21.02 13.514 20.888 13.058C20.76 12.598 20.666 12.134 20.606 11.666C20.546 11.198 20.516 10.72 20.516 10.232C20.516 9.74 20.546 9.26 20.606 8.792C20.666 8.324 20.76 7.862 20.888 7.406C21.02 6.946 21.19 6.49 21.398 6.038C21.61 5.582 21.866 5.124 22.166 4.664L22.688 4.982C22.756 5.026 22.806 5.084 22.838 5.156C22.87 5.228 22.852 5.33 22.784 5.462C22.376 6.182 22.066 6.946 21.854 7.754C21.642 8.558 21.536 9.384 21.536 10.232ZM31.0347 9.692C31.0347 10.444 30.9527 11.096 30.7887 11.648C30.6287 12.2 30.4067 12.658 30.1227 13.022C29.8427 13.382 29.5107 13.65 29.1267 13.826C28.7467 14.002 28.3367 14.09 27.8967 14.09C27.4567 14.09 27.0447 14.002 26.6607 13.826C26.2807 13.65 25.9507 13.382 25.6707 13.022C25.3907 12.658 25.1707 12.2 25.0107 11.648C24.8507 11.096 24.7707 10.444 24.7707 9.692C24.7707 8.94 24.8507 8.288 25.0107 7.736C25.1707 7.18 25.3907 6.722 25.6707 6.362C25.9507 5.998 26.2807 5.728 26.6607 5.552C27.0447 5.376 27.4567 5.288 27.8967 5.288C28.3367 5.288 28.7467 5.376 29.1267 5.552C29.5107 5.728 29.8427 5.998 30.1227 6.362C30.4067 6.722 30.6287 7.18 30.7887 7.736C30.9527 8.288 31.0347 8.94 31.0347 9.692ZM29.8227 9.692C29.8227 9.044 29.7687 8.502 29.6607 8.066C29.5567 7.63 29.4147 7.28 29.2347 7.016C29.0587 6.748 28.8547 6.558 28.6227 6.446C28.3907 6.334 28.1487 6.278 27.8967 6.278C27.6447 6.278 27.4027 6.334 27.1707 6.446C26.9387 6.558 26.7327 6.748 26.5527 7.016C26.3767 7.28 26.2367 7.63 26.1327 8.066C26.0287 8.502 25.9767 9.044 25.9767 9.692C25.9767 10.34 26.0287 10.882 26.1327 11.318C26.2367 11.754 26.3767 12.104 26.5527 12.368C26.7327 12.632 26.9387 12.82 27.1707 12.932C27.4027 13.044 27.6447 13.1 27.8967 13.1C28.1487 13.1 28.3907 13.044 28.6227 12.932C28.8547 12.82 29.0587 12.632 29.2347 12.368C29.4147 12.104 29.5567 11.754 29.6607 11.318C29.7687 10.882 29.8227 10.34 29.8227 9.692ZM34.2756 10.232C34.2756 9.384 34.1676 8.558 33.9516 7.754C33.7396 6.946 33.4296 6.182 33.0216 5.462C32.9536 5.33 32.9356 5.228 32.9676 5.156C33.0036 5.084 33.0556 5.026 33.1236 4.982L33.6456 4.664C33.9456 5.124 34.1996 5.582 34.4076 6.038C34.6156 6.49 34.7856 6.946 34.9176 7.406C35.0496 7.862 35.1456 8.324 35.2056 8.792C35.2656 9.26 35.2956 9.74 35.2956 10.232C35.2956 10.72 35.2656 11.198 35.2056 11.666C35.1456 12.134 35.0496 12.598 34.9176 13.058C34.7856 13.514 34.6156 13.968 34.4076 14.42C34.1996 14.876 33.9456 15.334 33.6456 15.794L33.1236 15.476C33.0556 15.432 33.0036 15.374 32.9676 15.302C32.9356 15.23 32.9536 15.128 33.0216 14.996C33.4296 14.276 33.7396 13.514 33.9516 12.71C34.1676 11.906 34.2756 11.08 34.2756 10.232Z" fill="#272727"/>
</svg>
