<svg width="18" height="18" viewBox="0 0 18 18" fill="none" xmlns="http://www.w3.org/2000/svg">
<path d="M16.7627 15.3148L12.9035 11.4557C13.8326 10.2188 14.3342 8.71323 14.3325 7.16625C14.3325 3.21481 11.1177 0 7.16625 0C3.21481 0 0 3.21481 0 7.16625C0 11.1177 3.21481 14.3325 7.16625 14.3325C8.71323 14.3342 10.2188 13.8326 11.4557 12.9035L15.3148 16.7627C15.5102 16.9373 15.765 17.0305 16.0269 17.0232C16.2888 17.0159 16.538 16.9085 16.7233 16.7233C16.9085 16.538 17.0159 16.2888 17.0232 16.0269C17.0305 15.765 16.9373 15.5102 16.7627 15.3148ZM2.0475 7.16625C2.0475 6.15386 2.34771 5.1642 2.91016 4.32243C3.47262 3.48065 4.27206 2.82457 5.20739 2.43714C6.14272 2.04972 7.17193 1.94835 8.16487 2.14586C9.15781 2.34336 10.0699 2.83088 10.7858 3.54675C11.5016 4.26262 11.9891 5.17469 12.1866 6.16763C12.3842 7.16057 12.2828 8.18978 11.8954 9.12511C11.5079 10.0604 10.8518 10.8599 10.0101 11.4223C9.1683 11.9848 8.17864 12.285 7.16625 12.285C5.80917 12.2834 4.50814 11.7436 3.54855 10.784C2.58895 9.82436 2.04913 8.52333 2.0475 7.16625Z" fill="white"/>
</svg>
